<svg version="1.1" id="Layer_1" xmlns="http://www.w3.org/2000/svg" xmlns:xlink="http://www.w3.org/1999/xlink" x="0px" y="0px"
	 width="100%" viewBox="0 0 512 512" enable-background="new 0 0 512 512" xml:space="preserve">
<path fill="#FFFFFF" opacity="1.000000" stroke="none" fill-opacity="0"
	d="
M513.000000,286.000000 
	C513.000000,361.632538 513.000000,437.265106 513.000000,512.948853 
	C342.444427,512.948853 171.888855,512.948853 1.000000,512.948853 
	C1.000000,437.645569 1.000000,362.290619 1.349488,286.695312 
	C3.110592,296.170227 4.197722,305.945953 5.992557,315.589966 
	C12.242587,349.172638 25.966877,379.698273 44.659233,408.092896 
	C47.420773,412.287842 50.823917,416.060455 54.076630,420.342407 
	C57.212124,424.340424 60.154636,428.063416 63.198463,431.701660 
	C75.814369,446.781219 90.130814,460.042877 106.051346,471.570618 
	C127.223175,486.900726 150.078720,499.077118 174.904984,507.277557 
	C183.654404,510.167633 193.331650,506.999725 193.906174,495.360901 
	C194.307602,487.228851 193.852371,479.054474 193.842285,470.443970 
	C193.877777,465.002411 193.850739,460.015839 193.920380,454.657654 
	C193.667358,453.239349 193.317642,452.192688 192.541885,451.098755 
	C181.743225,451.725250 171.356506,453.059814 161.002930,452.839203 
	C154.161285,452.693451 147.125183,451.005524 140.623749,448.729462 
	C134.781387,446.684082 129.549637,442.894562 124.028381,439.919983 
	C124.008217,439.965546 124.101814,439.999725 124.005493,439.748352 
	C123.614616,439.310120 123.320045,439.123322 122.912079,438.622620 
	C113.330177,430.703918 108.931572,419.824097 104.093239,409.247650 
	C98.775169,397.622437 91.930389,387.286621 81.082756,379.956146 
	C76.271645,376.704956 71.156929,373.534332 68.633026,366.675812 
	C72.154762,365.728394 75.398628,364.020508 78.573265,364.140717 
	C95.902679,364.797058 108.317230,374.212677 117.388580,388.068237 
	C125.536453,400.513306 134.384033,411.749603 149.400818,416.094238 
	C162.801193,419.971191 175.892029,418.154572 188.995346,414.137146 
	C193.610397,412.722168 195.081726,410.021881 196.069519,405.775604 
	C197.308533,400.449493 199.396439,395.320831 201.425140,389.931274 
	C204.707581,385.289032 207.682877,380.822540 210.057159,377.258270 
	C197.093658,374.342010 183.815491,371.849701 170.831696,368.285156 
	C159.462662,365.163910 148.815842,360.095367 139.141556,353.105927 
	C135.728165,350.639832 131.746140,348.960785 128.007782,346.568298 
	C127.681206,345.655640 127.419815,345.062195 127.052658,344.543640 
	C120.640671,335.487488 113.247498,326.965546 107.996109,317.281708 
	C97.217972,297.406219 95.051926,275.261505 94.150330,253.116837 
	C93.858879,245.958344 95.021332,238.682968 96.058731,231.539474 
	C98.587059,214.129562 105.838730,198.732452 117.250626,185.422760 
	C119.883209,182.352371 120.083878,179.920792 119.244873,176.119308 
	C117.349335,167.530716 115.035019,158.693588 115.352158,150.047852 
	C115.712051,140.236511 118.291023,130.403107 120.773422,120.803802 
	C123.004486,112.176392 124.243187,111.833389 133.208557,113.040573 
	C135.466522,113.344612 137.688766,113.933701 139.916336,114.440552 
	C156.891937,118.303024 171.849197,126.597595 186.278595,135.908401 
	C190.573593,138.679810 194.321014,139.623718 199.639877,138.401169 
	C211.713104,135.626190 223.998001,133.327011 236.321396,132.216522 
	C247.597748,131.200363 259.037872,131.963287 270.405579,132.008453 
	C285.583527,132.068741 300.356354,134.910980 315.047424,138.442215 
	C317.715729,139.083588 320.900177,139.521637 323.349701,138.653015 
	C326.647888,137.483459 329.451996,134.935699 332.489380,133.013031 
	C347.201630,123.700310 362.700439,116.110428 380.016968,113.256477 
	C383.778473,112.636543 388.502563,111.052696 391.969849,115.480164 
	C393.674561,121.614990 395.312622,127.362556 396.984406,133.539429 
	C397.676819,139.441772 399.209381,144.981735 398.796417,150.372665 
	C398.119324,159.211884 396.080383,167.940460 394.839111,176.747192 
	C394.525269,178.974091 394.258301,181.837799 395.346619,183.515976 
	C398.850647,188.919098 402.997620,193.905243 406.948700,199.390732 
	C407.661804,200.840775 408.322876,201.952271 409.026642,203.429489 
	C410.400879,206.749664 411.966187,209.622971 413.024567,212.672211 
	C418.395294,228.145996 421.486603,243.900467 419.146698,260.417175 
	C417.835724,269.670776 417.709778,279.127594 415.918030,288.270996 
	C411.087402,312.922150 400.013184,334.103333 379.778198,349.855682 
	C363.141113,362.807251 343.855103,369.233887 323.488251,373.045929 
	C316.706604,374.315216 309.878571,375.336578 302.372620,376.587830 
	C317.094940,390.726318 320.268768,408.044586 320.111481,426.627563 
	C319.922455,448.955811 320.034546,471.286774 320.052338,493.616547 
	C320.058319,501.144440 323.091370,505.663055 329.143372,507.393799 
	C333.121429,507.467377 337.130096,507.969818 340.556763,506.786591 
	C372.051056,495.912048 400.517334,479.472015 425.521515,457.577850 
	C442.586182,442.635712 457.507385,425.564331 470.128784,406.522217 
	C483.720673,386.015869 494.627045,364.221436 501.387299,340.642426 
	C505.593628,325.971313 507.849609,310.740936 510.978424,295.761078 
	C511.657806,292.508545 512.326416,289.253754 513.000000,286.000000 
z"/>
<path fill="#114C82" opacity="1.000000" stroke="none" 
	d="
M513.000000,285.531342 
	C512.326416,289.253754 511.657806,292.508545 510.978424,295.761078 
	C507.849609,310.740936 505.593628,325.971313 501.387299,340.642426 
	C494.627045,364.221436 483.720673,386.015869 470.128784,406.522217 
	C457.507385,425.564331 442.586182,442.635712 425.521515,457.577850 
	C400.517334,479.472015 372.051056,495.912048 340.556763,506.786591 
	C337.130096,507.969818 333.121429,507.467377 329.582092,507.376495 
	C333.588287,507.585754 334.068024,505.480652 334.053833,502.295013 
	C333.954163,479.967285 334.070129,457.638458 333.933228,435.311127 
	C333.910095,431.541382 333.188080,427.740051 332.461914,424.017151 
	C330.292999,412.897827 325.855225,402.863861 317.185425,394.469025 
	C319.575439,393.903107 321.418640,393.264862 323.309845,393.050659 
	C339.026459,391.270325 354.406860,387.983398 368.995758,381.817566 
	C391.124512,372.465088 408.466736,357.830109 419.591553,336.031921 
	C431.035889,313.607788 433.378174,289.443787 433.741180,265.008087 
	C433.874268,256.049500 431.839996,246.903503 429.715454,238.103470 
	C426.635956,225.347977 420.029266,214.134537 412.048218,203.784729 
	C411.699158,203.332062 410.800140,199.537277 408.983948,203.063751 
	C408.322876,201.952271 407.661804,200.840775 407.241455,199.154099 
	C412.713715,185.587738 412.920563,171.890198 411.740234,158.373215 
	C410.973633,149.594696 407.925049,140.979752 405.429626,132.428436 
	C405.076996,131.219971 402.076996,130.274216 400.260406,130.197357 
	C399.200165,130.152496 398.056732,132.073547 396.950714,133.110138 
	C395.312622,127.362556 393.674561,121.614990 392.226105,115.153542 
	C396.645081,114.796471 400.986786,114.658737 405.085571,115.590080 
	C432.407227,121.798218 454.652344,137.233475 475.451263,155.076859 
	C483.238922,161.757889 490.559265,168.983673 498.399841,176.171188 
	C498.812042,177.036514 498.871155,177.703049 499.028900,178.345337 
	C502.677612,193.205307 506.438171,208.038834 509.942596,222.932678 
	C511.264435,228.550568 511.998169,234.306824 513.000000,240.000000 
	C513.000000,255.020889 513.000000,270.041779 513.000000,285.531342 
z"/>
<path fill="#FFFFFF" opacity="1.000000" stroke="none" fill-opacity="0"
	d="
M513.000000,239.531342 
	C511.998169,234.306824 511.264435,228.550568 509.942596,222.932678 
	C506.438171,208.038834 502.677612,193.205307 499.028900,178.345337 
	C498.871155,177.703049 498.812042,177.036514 498.365082,175.785309 
	C491.823700,157.401962 483.588226,140.584305 473.235474,124.876945 
	C468.235107,117.290329 462.438019,110.228844 456.975525,102.835846 
	C456.949310,102.742111 456.779419,102.647125 456.711853,102.531311 
	C456.644257,102.415497 456.414734,102.276764 456.301208,102.053673 
	C455.784790,101.557556 455.381927,101.284531 454.987427,101.006805 
	C454.995758,101.002098 454.986115,101.019676 454.997681,100.658478 
	C453.053619,97.705299 451.360596,94.851982 449.091644,92.571739 
	C442.967743,86.417274 436.626801,80.477020 430.317352,74.509521 
	C425.745239,70.185204 421.356323,65.603706 416.398712,61.766022 
	C409.804932,56.661785 402.843048,52.007229 395.845276,47.457935 
	C388.429016,42.636578 381.108582,37.484226 373.160492,33.710163 
	C362.855408,28.816919 351.593414,25.890287 341.434082,20.751455 
	C329.334106,14.630961 316.194427,13.027469 303.383698,10.155581 
	C294.167664,8.089535 284.515778,7.967863 274.803894,6.630305 
	C263.189484,6.192988 251.829559,6.091356 240.469406,6.056579 
	C239.946320,6.054978 239.421387,6.653466 238.458557,6.981262 
	C235.082077,7.327043 232.134079,7.592578 229.208466,8.013618 
	C217.718689,9.667169 206.002075,10.434955 194.796860,13.238785 
	C167.144958,20.157999 141.238892,31.442322 117.293701,47.062954 
	C98.723328,59.177330 82.229599,73.690796 67.365303,90.085823 
	C62.497063,95.455399 57.482426,100.750687 53.161224,106.547005 
	C39.300480,125.139374 27.629665,145.029526 19.025438,166.627563 
	C11.867860,184.594299 6.438776,203.032135 3.914439,222.268707 
	C3.092521,228.532089 1.979746,234.757324 1.000000,241.000000 
	C1.000000,161.035309 1.000000,81.070610 1.000000,1.052958 
	C171.556030,1.052958 342.112091,1.052958 513.000000,1.052958 
	C513.000000,80.353920 513.000000,159.708298 513.000000,239.531342 
z"/>
<path fill="#6BA7E9" opacity="1.000000" stroke="none" 
	d="
M275.058289,6.978862 
	C284.515778,7.967863 294.167664,8.089535 303.383698,10.155581 
	C316.194427,13.027469 329.334106,14.630961 341.434082,20.751455 
	C351.593414,25.890287 362.855408,28.816919 373.160492,33.710163 
	C381.108582,37.484226 388.429016,42.636578 395.845276,47.457935 
	C402.843048,52.007229 409.804932,56.661785 416.398712,61.766022 
	C421.356323,65.603706 425.745239,70.185204 430.317352,74.509521 
	C436.626801,80.477020 442.967743,86.417274 449.091644,92.571739 
	C451.360596,94.851982 453.053619,97.705299 454.647827,100.655411 
	C450.272186,97.569443 446.088593,94.302322 442.273651,90.650131 
	C427.153534,76.174934 410.015686,64.479271 391.762024,54.468102 
	C359.253143,36.638668 324.246277,26.710709 287.363159,24.228750 
	C265.140839,22.733355 242.884354,23.996031 220.922363,28.501221 
	C195.355316,33.745937 171.050644,42.389610 148.135239,54.911835 
	C129.084793,65.322044 111.627228,77.931953 95.765663,92.749878 
	C76.421219,110.821518 60.322567,131.469772 47.338730,154.503342 
	C36.181877,174.295807 27.673317,195.249771 22.213457,217.289948 
	C16.294611,241.182922 13.316258,265.473053 14.976645,290.163361 
	C15.643957,300.086426 15.697871,310.123840 17.315058,319.896759 
	C23.067589,354.660095 34.790447,387.293945 53.682472,417.205933 
	C54.130810,417.915771 53.863663,419.077484 53.930229,420.028442 
	C50.823917,416.060455 47.420773,412.287842 44.659233,408.092896 
	C25.966877,379.698273 12.242587,349.172638 5.992557,315.589966 
	C4.197722,305.945953 3.110592,296.170227 1.349488,286.227448 
	C1.000000,271.312439 1.000000,256.624878 1.000000,241.468658 
	C1.979746,234.757324 3.092521,228.532089 3.914439,222.268707 
	C6.438776,203.032135 11.867860,184.594299 19.025438,166.627563 
	C27.629665,145.029526 39.300480,125.139374 53.161224,106.547005 
	C57.482426,100.750687 62.497063,95.455399 67.365303,90.085823 
	C82.229599,73.690796 98.723328,59.177330 117.293701,47.062954 
	C141.238892,31.442322 167.144958,20.157999 194.796860,13.238785 
	C206.002075,10.434955 217.718689,9.667169 229.208466,8.013618 
	C232.134079,7.592578 235.082077,7.327043 238.934814,6.993464 
	C251.585999,6.990866 263.322144,6.984864 275.058289,6.978862 
z"/>
<path fill="#3E77BF" opacity="1.000000" stroke="none" 
	d="
M54.076630,420.342407 
	C53.863663,419.077484 54.130810,417.915771 53.682472,417.205933 
	C34.790447,387.293945 23.067589,354.660095 17.315058,319.896759 
	C15.697871,310.123840 15.643957,300.086426 14.976645,290.163361 
	C13.316258,265.473053 16.294611,241.182922 22.213457,217.289948 
	C27.673317,195.249771 36.181877,174.295807 47.338730,154.503342 
	C60.322567,131.469772 76.421219,110.821518 95.765663,92.749878 
	C111.627228,77.931953 129.084793,65.322044 148.135239,54.911835 
	C171.050644,42.389610 195.355316,33.745937 220.922363,28.501221 
	C242.884354,23.996031 265.140839,22.733355 287.363159,24.228750 
	C324.246277,26.710709 359.253143,36.638668 391.762024,54.468102 
	C410.015686,64.479271 427.153534,76.174934 442.273651,90.650131 
	C446.088593,94.302322 450.272186,97.569443 454.636230,101.016602 
	C454.986115,101.019676 454.995758,101.002098 454.997925,101.338882 
	C455.471619,101.876030 455.943176,102.076393 456.414734,102.276764 
	C456.414734,102.276764 456.644257,102.415497 456.516174,102.670494 
	C456.592621,102.926857 456.797180,102.928223 457.001709,102.929581 
	C462.438019,110.228844 468.235107,117.290329 473.235474,124.876945 
	C483.588226,140.584305 491.823700,157.401962 498.057922,175.575226 
	C490.559265,168.983673 483.238922,161.757889 475.451263,155.076859 
	C454.652344,137.233475 432.407227,121.798218 405.085571,115.590080 
	C400.986786,114.658737 396.645081,114.796471 392.159485,114.766281 
	C388.502563,111.052696 383.778473,112.636543 380.016968,113.256477 
	C362.700439,116.110428 347.201630,123.700310 332.489380,133.013031 
	C329.451996,134.935699 326.647888,137.483459 323.349701,138.653015 
	C320.900177,139.521637 317.715729,139.083588 315.047424,138.442215 
	C300.356354,134.910980 285.583527,132.068741 270.405579,132.008453 
	C259.037872,131.963287 247.597748,131.200363 236.321396,132.216522 
	C223.998001,133.327011 211.713104,135.626190 199.639877,138.401169 
	C194.321014,139.623718 190.573593,138.679810 186.278595,135.908401 
	C171.849197,126.597595 156.891937,118.303024 139.916336,114.440552 
	C137.688766,113.933701 135.466522,113.344612 133.208557,113.040573 
	C124.243187,111.833389 123.004486,112.176392 120.773422,120.803802 
	C118.291023,130.403107 115.712051,140.236511 115.352158,150.047852 
	C115.035019,158.693588 117.349335,167.530716 119.244873,176.119308 
	C120.083878,179.920792 119.883209,182.352371 117.250626,185.422760 
	C105.838730,198.732452 98.587059,214.129562 96.058731,231.539474 
	C95.021332,238.682968 93.858879,245.958344 94.150330,253.116837 
	C95.051926,275.261505 97.217972,297.406219 107.996109,317.281708 
	C113.247498,326.965546 120.640671,335.487488 127.052658,344.543640 
	C127.419815,345.062195 127.681206,345.655640 128.122437,346.888184 
	C137.889267,362.045471 151.125214,372.581177 166.749741,379.435822 
	C177.665436,384.224640 189.624786,386.634521 201.117996,390.106995 
	C199.396439,395.320831 197.308533,400.449493 196.069519,405.775604 
	C195.081726,410.021881 193.610397,412.722168 188.995346,414.137146 
	C175.892029,418.154572 162.801193,419.971191 149.400818,416.094238 
	C134.384033,411.749603 125.536453,400.513306 117.388580,388.068237 
	C108.317230,374.212677 95.902679,364.797058 78.573265,364.140717 
	C75.398628,364.020508 72.154762,365.728394 68.633026,366.675812 
	C71.156929,373.534332 76.271645,376.704956 81.082756,379.956146 
	C91.930389,387.286621 98.775169,397.622437 104.093239,409.247650 
	C108.931572,419.824097 113.330177,430.703918 123.029572,438.856415 
	C123.540916,439.602631 123.821365,439.801178 124.101814,439.999725 
	C124.101814,439.999725 124.008217,439.965546 123.996742,440.298370 
	C124.118927,441.272186 124.088287,442.013855 124.410324,442.539398 
	C132.072556,455.044525 143.009720,463.340546 156.871735,468.007355 
	C168.958832,472.076630 181.395508,470.995239 193.779770,470.899017 
	C193.852371,479.054474 194.307602,487.228851 193.906174,495.360901 
	C193.331650,506.999725 183.654404,510.167633 174.904984,507.277557 
	C150.078720,499.077118 127.223175,486.900726 106.051346,471.570618 
	C90.130814,460.042877 75.814369,446.781219 63.198463,431.701660 
	C60.154636,428.063416 57.212124,424.340424 54.076630,420.342407 
z"/>
<path fill="#093F68" opacity="1.000000" stroke="none" 
	d="
M409.026642,203.429489 
	C410.800140,199.537277 411.699158,203.332062 412.048218,203.784729 
	C420.029266,214.134537 426.635956,225.347977 429.715454,238.103470 
	C431.839996,246.903503 433.874268,256.049500 433.741180,265.008087 
	C433.378174,289.443787 431.035889,313.607788 419.591553,336.031921 
	C408.466736,357.830109 391.124512,372.465088 368.995758,381.817566 
	C354.406860,387.983398 339.026459,391.270325 323.309845,393.050659 
	C321.418640,393.264862 319.575439,393.903107 317.185425,394.469025 
	C325.855225,402.863861 330.292999,412.897827 332.461914,424.017151 
	C333.188080,427.740051 333.910095,431.541382 333.933228,435.311127 
	C334.070129,457.638458 333.954163,479.967285 334.053833,502.295013 
	C334.068024,505.480652 333.588287,507.585754 329.342773,507.023499 
	C323.091370,505.663055 320.058319,501.144440 320.052338,493.616547 
	C320.034546,471.286774 319.922455,448.955811 320.111481,426.627563 
	C320.268768,408.044586 317.094940,390.726318 302.372620,376.587830 
	C309.878571,375.336578 316.706604,374.315216 323.488251,373.045929 
	C343.855103,369.233887 363.141113,362.807251 379.778198,349.855682 
	C400.013184,334.103333 411.087402,312.922150 415.918030,288.270996 
	C417.709778,279.127594 417.835724,269.670776 419.146698,260.417175 
	C421.486603,243.900467 418.395294,228.145996 413.024567,212.672211 
	C411.966187,209.622971 410.400879,206.749664 409.026642,203.429489 
z"/>
<path fill="#134E84" opacity="1.000000" stroke="none" 
	d="
M193.842285,470.443970 
	C181.395508,470.995239 168.958832,472.076630 156.871735,468.007355 
	C143.009720,463.340546 132.072556,455.044525 124.410324,442.539398 
	C124.088287,442.013855 124.118927,441.272186 124.016907,440.252808 
	C129.549637,442.894562 134.781387,446.684082 140.623749,448.729462 
	C147.125183,451.005524 154.161285,452.693451 161.002930,452.839203 
	C171.356506,453.059814 181.743225,451.725250 192.571747,451.441467 
	C193.292984,452.897430 193.558334,453.963348 193.823685,455.029297 
	C193.850739,460.015839 193.877777,465.002411 193.842285,470.443970 
z"/>
<path fill="#144E85" opacity="1.000000" stroke="none" 
	d="
M201.425140,389.931274 
	C189.624786,386.634521 177.665436,384.224640 166.749741,379.435822 
	C151.125214,372.581177 137.889267,362.045471 128.138397,347.242249 
	C131.746140,348.960785 135.728165,350.639832 139.141556,353.105927 
	C148.815842,360.095367 159.462662,365.163910 170.831696,368.285156 
	C183.815491,371.849701 197.093658,374.342010 210.057159,377.258270 
	C207.682877,380.822540 204.707581,385.289032 201.425140,389.931274 
z"/>
<path fill="#093F68" opacity="1.000000" stroke="none" 
	d="
M396.984406,133.539444 
	C398.056732,132.073547 399.200165,130.152496 400.260406,130.197357 
	C402.076996,130.274216 405.076996,131.219971 405.429626,132.428436 
	C407.925049,140.979752 410.973633,149.594696 411.740234,158.373215 
	C412.920563,171.890198 412.713715,185.587738 407.189423,198.815536 
	C402.997620,193.905243 398.850647,188.919098 395.346619,183.515976 
	C394.258301,181.837799 394.525269,178.974091 394.839111,176.747192 
	C396.080383,167.940460 398.119324,159.211884 398.796417,150.372665 
	C399.209381,144.981735 397.676819,139.441772 396.984406,133.539444 
z"/>
<path fill="#3E77BF" opacity="1.000000" stroke="none" 
	d="
M193.920380,454.657654 
	C193.558334,453.963348 193.292984,452.897430 192.997772,451.488770 
	C193.317642,452.192688 193.667358,453.239349 193.920380,454.657654 
z"/>
<path fill="#134E84" opacity="1.000000" stroke="none" 
	d="
M124.005493,439.748352 
	C123.821365,439.801178 123.540916,439.602631 123.142975,439.170288 
	C123.320045,439.123322 123.614616,439.310120 124.005493,439.748352 
z"/>
<path fill="#5691D6" opacity="1.000000" stroke="none" 
	d="
M274.803894,6.630306 
	C263.322144,6.984864 251.585999,6.990866 239.373596,6.984667 
	C239.421387,6.653466 239.946320,6.054978 240.469406,6.056579 
	C251.829559,6.091356 263.189484,6.192988 274.803894,6.630306 
z"/>
<path fill="#6BA7E9" opacity="1.000000" stroke="none" 
	d="
M456.301208,102.053673 
	C455.943176,102.076393 455.471619,101.876030 454.989563,101.343582 
	C455.381927,101.284531 455.784790,101.557556 456.301208,102.053673 
z"/>
<path fill="#6BA7E9" opacity="1.000000" stroke="none" 
	d="
M456.975525,102.835846 
	C456.797180,102.928223 456.592621,102.926857 456.583740,102.786308 
	C456.779419,102.647125 456.949310,102.742111 456.975525,102.835846 
z"/>
</svg>