<svg version="1.1" id="Layer_1" xmlns="http://www.w3.org/2000/svg" xmlns:xlink="http://www.w3.org/1999/xlink" x="0px" y="0px"
	 width="100%" viewBox="0 0 512 512" enable-background="new 0 0 512 512" xml:space="preserve">
<path fill="#000000" opacity="1.000000" stroke="none"  fill-opacity="0" 
	d="
M88.000000,0.999999 
	C229.622131,1.000000 371.244263,1.000000 512.933228,1.000000 
	C512.933228,171.568436 512.933228,342.136902 512.933228,513.000000 
	C371.642731,513.000000 230.285248,513.000000 88.122711,512.754395 
	C88.078468,511.923492 88.783455,511.241028 89.608246,510.766968 
	C109.947258,499.076080 130.348892,487.493225 150.635376,475.712067 
	C174.168991,462.045074 197.571198,448.152008 221.090591,434.460358 
	C242.225418,422.156860 263.481415,410.061432 284.611542,397.749908 
	C308.268341,383.966217 331.857819,370.066650 355.446106,356.165894 
	C362.714996,351.882263 369.884186,347.429474 377.449036,343.013245 
	C401.457703,329.001923 425.174133,315.127869 448.739227,301.001404 
	C455.653870,296.856262 463.081329,292.916656 468.615936,287.260651 
	C478.738739,276.915924 482.639313,263.901642 479.965240,249.326355 
	C477.672821,236.831146 471.841858,226.489563 460.708801,219.947311 
	C426.434387,199.806213 392.029419,179.887375 357.694366,159.849319 
	C328.089874,142.571991 298.512756,125.247757 268.921570,107.947632 
	C233.463440,87.217499 198.009796,66.479675 162.541626,45.766720 
	C138.517715,31.737053 114.465187,17.756330 90.460518,3.693875 
	C89.458267,3.106731 88.812073,1.911785 88.000000,0.999999 
z"/>
<path fill="#314B52" opacity="1.000000" stroke="none" 
	d="
M87.531349,0.999999 
	C88.812073,1.911785 89.458267,3.106731 90.460518,3.693875 
	C114.465187,17.756330 138.517715,31.737053 162.541626,45.766720 
	C198.009796,66.479675 233.463440,87.217499 268.921570,107.947632 
	C298.512756,125.247757 328.089874,142.571991 357.694366,159.849319 
	C392.029419,179.887375 426.434387,199.806213 460.708801,219.947311 
	C471.841858,226.489563 477.672821,236.831146 479.965240,249.326355 
	C482.639313,263.901642 478.738739,276.915924 468.615936,287.260651 
	C463.081329,292.916656 455.653870,296.856262 448.739227,301.001404 
	C425.174133,315.127869 401.457703,329.001923 377.087219,342.959137 
	C374.932739,341.964325 373.314453,341.164703 372.076721,339.970642 
	C365.541931,333.666229 359.103058,327.262421 352.619446,320.719971 
	C352.608002,320.546814 352.516052,320.208771 352.823120,319.996155 
	C371.942841,308.857208 390.753906,297.928223 409.568665,287.005646 
	C420.486267,280.667633 431.508453,274.502380 442.298767,267.954834 
	C450.546570,262.950104 451.492462,252.635284 444.043427,248.249954 
	C413.267731,230.131943 382.350342,212.254639 351.226868,194.081482 
	C319.523224,175.472321 288.082001,157.063217 256.631256,138.670410 
	C198.466599,104.654922 140.290359,70.659256 82.140045,36.619282 
	C77.557060,33.936501 73.102478,31.313738 67.588348,35.027069 
	C59.843327,27.534964 52.416813,20.159679 45.130005,12.484196 
	C50.435913,9.125838 55.615852,6.090423 60.754589,2.986795 
	C61.596088,2.478557 62.256107,1.669842 63.000000,1.000001 
	C71.020897,1.000000 79.041801,1.000000 87.531349,0.999999 
z"/>
<path fill="#FF3333" opacity="1.000000" stroke="none" 
	d="
M352.630890,320.893097 
	C359.103058,327.262421 365.541931,333.666229 372.076721,339.970642 
	C373.314453,341.164703 374.932739,341.964325 376.737244,343.000061 
	C369.884186,347.429474 362.714996,351.882263 355.446106,356.165894 
	C331.857819,370.066650 308.268341,383.966217 284.611542,397.749908 
	C263.481415,410.061432 242.225418,422.156860 221.090591,434.460358 
	C197.571198,448.152008 174.168991,462.045074 150.635376,475.712067 
	C130.348892,487.493225 109.947258,499.076080 89.608246,510.766968 
	C88.783455,511.241028 88.078468,511.923492 87.658829,512.754395 
	C79.312439,513.000000 70.624870,513.000000 61.808708,512.726379 
	C60.148693,511.654327 58.603504,510.881104 57.088402,510.052795 
	C52.240334,507.402527 46.447639,505.996338 44.354290,500.091736 
	C46.273006,498.878174 48.021996,497.924225 49.375603,496.573944 
	C95.315643,450.748077 141.219864,404.886353 187.119904,359.020386 
	C188.996063,357.145630 190.782013,355.180634 192.851776,353.136139 
	C193.256699,352.939056 193.419800,352.863495 194.075653,352.835083 
	C203.698746,352.602753 212.886734,352.877136 221.947845,351.933289 
	C243.567657,349.681152 265.258087,347.633698 286.676422,344.048523 
	C309.860565,340.167755 332.283539,333.268188 352.630890,320.893097 
z"/>
<path fill="#000000" opacity="1.000000" stroke="none" fill-opacity="0"
	d="
M44.000206,500.166534 
	C46.447639,505.996338 52.240334,507.402527 57.088402,510.052795 
	C58.603504,510.881104 60.148693,511.654327 61.340054,512.726379 
	C41.013809,513.000000 21.027617,513.000000 1.046898,513.000000 
	C1.052373,342.333313 1.052373,171.666656 1.052373,1.000000 
	C21.424059,1.000000 41.743370,1.000000 62.531342,1.000001 
	C62.256107,1.669842 61.596088,2.478557 60.754589,2.986795 
	C55.615852,6.090423 50.435913,9.125838 44.824699,12.655355 
	C36.707787,20.597692 32.960983,29.611284 32.964813,40.395546 
	C33.016315,185.388687 33.003433,330.381836 32.990097,475.375000 
	C32.989185,485.297516 37.295837,493.250488 44.000206,500.166534 
z"/>
<path fill="#0879E4" opacity="1.000000" stroke="none" 
	d="
M44.354290,500.091736 
	C37.295837,493.250488 32.989185,485.297516 32.990097,475.375000 
	C33.003433,330.381836 33.016315,185.388687 32.964813,40.395546 
	C32.960983,29.611284 36.707787,20.597692 44.684994,12.955553 
	C52.416813,20.159679 59.843327,27.534964 67.568344,35.219936 
	C67.866852,35.529625 67.814240,35.914185 67.517654,36.127975 
	C66.481316,39.321110 65.099701,42.299526 65.095375,45.279942 
	C64.978287,125.904587 64.997124,206.529449 65.026550,287.154266 
	C65.027458,289.638580 65.171005,292.161316 65.611343,294.600586 
	C68.031708,308.008179 76.780457,317.050018 87.129189,324.733459 
	C101.535248,335.429321 118.053787,341.553741 135.255325,346.038422 
	C154.059189,350.940887 173.271393,352.601990 192.609985,353.257660 
	C190.782013,355.180634 188.996063,357.145630 187.119904,359.020386 
	C141.219864,404.886353 95.315643,450.748077 49.375603,496.573944 
	C48.021996,497.924225 46.273006,498.878174 44.354290,500.091736 
z"/>
<path fill="#48FF48" opacity="1.000000" stroke="none" 
	d="
M67.814240,35.914185 
	C67.814240,35.914185 67.866852,35.529625 67.886856,35.336754 
	C73.102478,31.313738 77.557060,33.936501 82.140045,36.619282 
	C140.290359,70.659256 198.466599,104.654922 256.631256,138.670410 
	C288.082001,157.063217 319.523224,175.472321 350.995789,194.399048 
	C332.329346,213.630478 313.624634,232.325775 294.959686,251.060669 
	C293.098267,252.929092 291.478760,255.038528 289.524292,257.035858 
	C289.301575,257.035614 288.858154,256.994080 288.661499,256.736206 
	C215.765732,183.753204 143.066925,111.027824 70.364128,38.306416 
	C69.540550,37.482628 68.665344,36.710453 67.814240,35.914185 
z"/>
<path fill="#FEF200" opacity="1.000000" stroke="none" 
	d="
M289.746979,257.036102 
	C291.478760,255.038528 293.098267,252.929092 294.959686,251.060669 
	C313.624634,232.325775 332.329346,213.630478 351.253906,194.606445 
	C382.350342,212.254639 413.267731,230.131943 444.043427,248.249954 
	C451.492462,252.635284 450.546570,262.950104 442.298767,267.954834 
	C431.508453,274.502380 420.486267,280.667633 409.568665,287.005646 
	C390.753906,297.928223 371.942841,308.857208 352.581360,319.791382 
	C332.684875,300.504639 313.329956,281.217255 294.003632,261.901337 
	C292.482910,260.381439 291.161194,258.662537 289.746979,257.036102 
z"/>
<path fill="#FE6D59" opacity="1.000000" stroke="none" 
	d="
M289.524292,257.035858 
	C291.161194,258.662537 292.482910,260.381439 294.003632,261.901337 
	C313.329956,281.217255 332.684875,300.504639 352.274292,320.004028 
	C352.516052,320.208771 352.608002,320.546814 352.619446,320.719971 
	C332.283539,333.268188 309.860565,340.167755 286.676422,344.048523 
	C265.258087,347.633698 243.567657,349.681152 221.947845,351.933289 
	C212.886734,352.877136 203.698746,352.602753 194.234863,352.530151 
	C197.185135,348.865204 200.459091,345.542542 203.754425,342.241180 
	C232.120148,313.823334 260.489746,285.409271 288.858154,256.994080 
	C288.858154,256.994080 289.301575,257.035614 289.524292,257.035858 
z"/>
<path fill="#57CEF3" opacity="1.000000" stroke="none"  
	d="
M288.661499,256.736206 
	C260.489746,285.409271 232.120148,313.823334 203.754425,342.241180 
	C200.459091,345.542542 197.185135,348.865204 193.742081,352.482971 
	C193.419800,352.863495 193.256699,352.939056 192.851776,353.136139 
	C173.271393,352.601990 154.059189,350.940887 135.255325,346.038422 
	C118.053787,341.553741 101.535248,335.429321 87.129189,324.733459 
	C76.780457,317.050018 68.031708,308.008179 65.611343,294.600586 
	C65.171005,292.161316 65.027458,289.638580 65.026550,287.154266 
	C64.997124,206.529449 64.978287,125.904587 65.095375,45.279942 
	C65.099701,42.299526 66.481316,39.321110 67.517654,36.127975 
	C68.665344,36.710453 69.540550,37.482628 70.364128,38.306416 
	C143.066925,111.027824 215.765732,183.753204 288.661499,256.736206 
z"/>
</svg>